<svg width="316" height="264" viewBox="0 0 316 264" fill="none" xmlns="http://www.w3.org/2000/svg">
<rect width="54" height="263" fill="#FF8000"/>
<mask id="path-2-inside-1" fill="white">
<path fill-rule="evenodd" clip-rule="evenodd" d="M147 259.715C154.853 260.152 164.262 260.667 173.543 261.176C189.21 262.034 204.509 262.871 211.324 263.279C221.232 263.86 231.117 261.808 239.973 257.33C248.829 252.852 256.341 246.108 261.745 237.783C270.03 225.015 301.048 177.569 306.257 169.65C311.701 161.387 314.866 151.831 315.43 141.949C315.995 132.067 313.939 122.21 309.471 113.376L272.556 40.3719C268.129 31.6124 261.483 24.1661 253.283 18.7756C245.082 13.3851 235.613 10.2389 225.82 9.65066C221.097 9.3575 204.927 8.47133 187.9 7.53817C172.251 6.6805 155.877 5.78313 147 5.27002V71.585C151.28 69.5698 155.999 68.6499 160.732 68.9154C165.064 69.1979 176.246 69.8028 185.989 70.3299C193.391 70.7303 199.963 71.0858 202.067 71.2208C207.013 71.521 211.795 73.1125 215.935 75.8367C220.076 78.5609 223.431 82.3227 225.667 86.7472L244.337 123.67L244.298 123.69C246.556 128.152 247.596 133.131 247.312 138.123C247.027 143.115 245.428 147.943 242.677 152.116C240.029 156.111 224.364 180.084 220.188 186.547C217.451 190.736 213.659 194.13 209.194 196.387C204.729 198.645 199.749 199.687 194.752 199.408C190.837 199.153 181.294 198.637 172.27 198.149C163.727 197.687 155.65 197.25 153.26 197.084C151.129 196.943 149.03 196.563 147 195.955V259.715Z"/>
</mask>
<path fill-rule="evenodd" clip-rule="evenodd" d="M147 259.715C154.853 260.152 164.262 260.667 173.543 261.176C189.21 262.034 204.509 262.871 211.324 263.279C221.232 263.86 231.117 261.808 239.973 257.33C248.829 252.852 256.341 246.108 261.745 237.783C270.03 225.015 301.048 177.569 306.257 169.65C311.701 161.387 314.866 151.831 315.43 141.949C315.995 132.067 313.939 122.21 309.471 113.376L272.556 40.3719C268.129 31.6124 261.483 24.1661 253.283 18.7756C245.082 13.3851 235.613 10.2389 225.82 9.65066C221.097 9.3575 204.927 8.47133 187.9 7.53817C172.251 6.6805 155.877 5.78313 147 5.27002V71.585C151.28 69.5698 155.999 68.6499 160.732 68.9154C165.064 69.1979 176.246 69.8028 185.989 70.3299C193.391 70.7303 199.963 71.0858 202.067 71.2208C207.013 71.521 211.795 73.1125 215.935 75.8367C220.076 78.5609 223.431 82.3227 225.667 86.7472L244.337 123.67L244.298 123.69C246.556 128.152 247.596 133.131 247.312 138.123C247.027 143.115 245.428 147.943 242.677 152.116C240.029 156.111 224.364 180.084 220.188 186.547C217.451 190.736 213.659 194.13 209.194 196.387C204.729 198.645 199.749 199.687 194.752 199.408C190.837 199.153 181.294 198.637 172.27 198.149C163.727 197.687 155.65 197.25 153.26 197.084C151.129 196.943 149.03 196.563 147 195.955V259.715Z" fill="#F2F0E9"/>
<path d="M147 259.715H146V260.661L146.944 260.713L147 259.715ZM173.543 261.176L173.598 260.177L173.543 261.176ZM211.324 263.279L211.265 264.277L211.266 264.277L211.324 263.279ZM239.973 257.33L239.521 256.437L239.973 257.33ZM261.745 237.783L262.584 238.328L262.584 238.328L261.745 237.783ZM306.257 169.65L305.422 169.1L305.421 169.1L306.257 169.65ZM315.43 141.949L314.432 141.892L315.43 141.949ZM309.471 113.376L308.579 113.828L308.579 113.828L309.471 113.376ZM272.556 40.3719L271.664 40.823L271.664 40.8232L272.556 40.3719ZM253.283 18.7756L253.832 17.94L253.283 18.7756ZM225.82 9.65066L225.758 10.6487L225.76 10.6489L225.82 9.65066ZM187.9 7.53817L187.846 8.53667L187.9 7.53817ZM147 5.27002L147.058 4.27169L146 4.21055V5.27002H147ZM147 71.585H146V73.1612L147.426 72.4897L147 71.585ZM160.732 68.9154L160.797 67.9175L160.788 67.917L160.732 68.9154ZM185.989 70.3299L185.935 71.3284L185.989 70.3299ZM202.067 71.2208L202.003 72.2188L202.007 72.219L202.067 71.2208ZM225.667 86.7472L224.774 87.1982L224.774 87.1985L225.667 86.7472ZM244.337 123.67L244.788 124.563L245.68 124.112L245.229 123.219L244.337 123.67ZM244.298 123.69L243.846 122.798L242.954 123.249L243.405 124.142L244.298 123.69ZM247.312 138.123L246.313 138.066L247.312 138.123ZM242.677 152.116L243.511 152.669L243.512 152.667L242.677 152.116ZM220.188 186.547L221.025 187.094L221.028 187.09L220.188 186.547ZM194.752 199.408L194.687 200.406L194.697 200.407L194.752 199.408ZM172.27 198.149L172.216 199.148L172.27 198.149ZM153.26 197.084L153.33 196.086L153.326 196.086L153.26 197.084ZM147 195.955L147.287 194.997L146 194.612V195.955H147ZM148 259.715V256.527H146V259.715H148ZM148 250.151V243.775H146V250.151H148ZM148 237.399V231.023H146V237.399H148ZM148 224.647V218.271H146V224.647H148ZM148 211.895V205.519H146V211.895H148ZM148 199.143V195.955H146V199.143H148ZM146.713 196.913C147.24 197.071 147.771 197.214 148.306 197.341L148.771 195.396C148.273 195.277 147.778 195.144 147.287 194.997L146.713 196.913ZM151.552 197.927C152.097 197.994 152.645 198.046 153.194 198.082L153.326 196.086C152.814 196.052 152.304 196.004 151.796 195.942L151.552 197.927ZM153.191 198.082C154.086 198.144 155.766 198.243 157.954 198.367L158.067 196.37C155.876 196.246 154.21 196.148 153.33 196.086L153.191 198.082ZM167.463 198.89C169.008 198.974 170.604 199.06 172.216 199.148L172.324 197.151C170.712 197.063 169.116 196.977 167.571 196.893L167.463 198.89ZM172.216 199.148C173.15 199.198 174.089 199.249 175.027 199.3L175.135 197.303C174.197 197.252 173.258 197.201 172.324 197.151L172.216 199.148ZM180.648 199.605C182.616 199.712 184.513 199.816 186.269 199.914L186.38 197.917C184.623 197.82 182.725 197.715 180.757 197.608L180.648 199.605ZM191.885 200.234C192.996 200.3 193.944 200.358 194.687 200.406L194.817 198.411C194.069 198.362 193.116 198.303 192.003 198.238L191.885 200.234ZM194.697 200.407C195.987 200.479 197.276 200.466 198.556 200.369L198.405 198.375C197.212 198.465 196.011 198.477 194.808 198.41L194.697 200.407ZM206.095 198.792C207.306 198.368 208.492 197.863 209.645 197.28L208.743 195.495C207.668 196.039 206.562 196.509 205.433 196.905L206.095 198.792ZM209.645 197.28C210.798 196.697 211.908 196.041 212.968 195.317L211.84 193.665C210.852 194.34 209.818 194.952 208.743 195.495L209.645 197.28ZM218.707 190.18C219.544 189.206 220.318 188.176 221.025 187.094L219.351 186C218.692 187.008 217.97 187.969 217.19 188.876L218.707 190.18ZM221.028 187.09C221.507 186.348 222.139 185.374 222.885 184.225L221.208 183.135C220.461 184.285 219.829 185.26 219.348 186.004L221.028 187.09ZM226.628 178.476C227.81 176.663 229.079 174.717 230.373 172.734L228.699 171.641C227.404 173.624 226.135 175.57 224.953 177.384L226.628 178.476ZM234.123 166.993C235.432 164.991 236.704 163.046 237.874 161.257L236.201 160.162C235.03 161.951 233.758 163.897 232.449 165.899L234.123 166.993ZM241.635 155.517C242.482 154.228 243.131 153.241 243.511 152.669L241.844 151.564C241.461 152.14 240.81 153.13 239.963 154.42L241.635 155.517ZM243.512 152.667C244.223 151.589 244.859 150.469 245.419 149.314L243.619 148.442C243.097 149.518 242.504 150.561 241.842 151.566L243.512 152.667ZM247.838 142.008C248.079 140.748 248.237 139.469 248.31 138.18L246.313 138.066C246.245 139.268 246.098 140.459 245.874 141.633L247.838 142.008ZM248.31 138.18C248.384 136.891 248.372 135.602 248.276 134.323L246.282 134.472C246.371 135.664 246.382 136.865 246.313 138.066L248.31 138.18ZM246.703 126.787C246.278 125.576 245.773 124.391 245.19 123.239L243.405 124.142C243.949 125.216 244.42 126.321 244.815 127.449L246.703 126.787ZM244.749 124.583L244.759 124.578L243.856 122.793L243.846 122.798L244.749 124.583ZM244.778 124.568L244.788 124.563L243.885 122.778L243.876 122.783L244.778 124.568ZM245.229 123.219L243.673 120.142L241.889 121.045L243.444 124.122L245.229 123.219ZM240.562 113.988L237.45 107.835L235.665 108.737L238.777 114.891L240.562 113.988ZM234.338 101.681L231.227 95.5268L229.442 96.4293L232.553 102.583L234.338 101.681ZM228.115 89.3729L226.559 86.296L224.774 87.1985L226.33 90.2754L228.115 89.3729ZM226.559 86.2963C225.982 85.1537 225.332 84.0537 224.616 83.0025L222.963 84.1286C223.631 85.1083 224.236 86.1333 224.774 87.1982L226.559 86.2963ZM219.536 77.3067C218.573 76.4754 217.554 75.7049 216.485 75.0013L215.386 76.6721C216.382 77.3279 217.332 78.0459 218.229 78.8206L219.536 77.3067ZM216.485 75.0013C215.416 74.2978 214.305 73.6673 213.161 73.1123L212.288 74.9118C213.354 75.429 214.389 76.0165 215.386 76.6721L216.485 75.0013ZM205.921 70.7024C204.672 70.461 203.406 70.3002 202.128 70.2227L202.007 72.219C203.197 72.2913 204.378 72.4411 205.541 72.666L205.921 70.7024ZM202.131 70.2229C201.343 70.1723 199.937 70.0913 198.105 69.9891L197.993 71.986C199.827 72.0883 201.225 72.1688 202.003 72.2188L202.131 70.2229ZM190.063 69.549C188.767 69.4787 187.419 69.4058 186.043 69.3314L185.935 71.3284C187.311 71.4029 188.659 71.4758 189.955 71.546L190.063 69.549ZM186.043 69.3314C185.003 69.2751 183.948 69.218 182.886 69.1605L182.778 71.1576C183.84 71.2151 184.895 71.2722 185.935 71.3284L186.043 69.3314ZM176.571 68.8174C174.375 68.6975 172.239 68.5801 170.256 68.4697L170.145 70.4666C172.128 70.5771 174.265 70.6945 176.462 70.8144L176.571 68.8174ZM163.946 68.1104C162.686 68.0362 161.617 67.971 160.797 67.9175L160.667 69.9133C161.493 69.9672 162.566 70.0326 163.828 70.1069L163.946 68.1104ZM160.788 67.917C159.567 67.8484 158.346 67.8562 157.133 67.9388L157.269 69.9342C158.4 69.8572 159.538 69.85 160.676 69.9138L160.788 67.917ZM149.971 69.3311C148.815 69.7091 147.68 70.1593 146.574 70.6803L147.426 72.4897C148.457 72.0041 149.515 71.5844 150.593 71.232L149.971 69.3311ZM148 71.585V68.2692H146V71.585H148ZM148 61.6377V55.0062H146V61.6377H148ZM148 48.3747V41.7432H146V48.3747H148ZM148 35.1117V28.4803H146V35.1117H148ZM148 21.8488V15.2173H146V21.8488H148ZM148 8.58576V5.27002H146V8.58576H148ZM146.942 6.26835C147.98 6.32831 149.119 6.39351 150.348 6.46326L150.461 4.46648C149.233 4.39675 148.094 4.3316 147.058 4.27169L146.942 6.26835ZM157.168 6.84671C159.313 6.9664 161.598 7.09322 163.984 7.22517L164.094 5.22822C161.709 5.09629 159.424 4.96948 157.28 4.84982L157.168 6.84671ZM170.802 7.60128C173.033 7.72412 175.315 7.84948 177.62 7.97598L177.73 5.97899C175.425 5.85249 173.143 5.72713 170.912 5.6043L170.802 7.60128ZM184.437 8.34986C185.575 8.41223 186.712 8.47456 187.846 8.53667L187.955 6.53967C186.822 6.47755 185.684 6.41523 184.547 6.35286L184.437 8.34986ZM187.846 8.53667C188.903 8.59463 189.957 8.65241 191.006 8.70987L191.115 6.71287C190.067 6.65541 189.013 6.59763 187.955 6.53967L187.846 8.53667ZM197.326 9.05649C199.492 9.17536 201.608 9.29159 203.649 9.4039L203.759 7.40692C201.718 7.29461 199.602 7.17837 197.436 7.0595L197.326 9.05649ZM209.968 9.75252C212.244 9.87847 214.366 9.99639 216.287 10.1039L216.399 8.10704C214.477 7.99948 212.355 7.88154 210.078 7.75558L209.968 9.75252ZM222.608 10.462C223.93 10.5383 224.995 10.6013 225.758 10.6487L225.882 8.65258C225.114 8.60491 224.046 8.5417 222.723 8.46529L222.608 10.462ZM225.76 10.6489C226.958 10.7208 228.152 10.8318 229.338 10.9811L229.588 8.99673C228.358 8.84199 227.122 8.72703 225.88 8.65246L225.76 10.6489ZM236.39 12.3404C238.708 12.9463 240.985 13.7028 243.205 14.6051L243.958 12.7523C241.657 11.8173 239.298 11.0333 236.896 10.4054L236.39 12.3404ZM249.668 17.7366C250.708 18.3269 251.731 18.952 252.733 19.6113L253.832 17.94C252.793 17.2568 251.733 16.6091 250.656 15.9973L249.668 17.7366ZM252.733 19.6113C253.737 20.2707 254.716 20.9614 255.671 21.6821L256.876 20.0859C255.887 19.3391 254.872 18.6233 253.832 17.94L252.733 19.6113ZM261.11 26.3747C262.819 28.0554 264.417 29.8458 265.893 31.7344L267.469 30.5027C265.939 28.5457 264.283 26.6903 262.512 24.9487L261.11 26.3747ZM269.939 37.6702C270.547 38.7002 271.122 39.7516 271.664 40.823L273.449 39.9208C272.888 38.8106 272.291 37.721 271.662 36.6537L269.939 37.6702ZM271.664 40.8232L273.202 43.865L274.987 42.9625L273.449 39.9207L271.664 40.8232ZM276.278 49.9487L279.355 56.0325L281.139 55.13L278.063 49.0463L276.278 49.9487ZM282.431 62.1162L285.507 68.1999L287.292 67.2974L284.216 61.2137L282.431 62.1162ZM288.583 74.2836L291.659 80.3673L293.444 79.4648L290.368 73.3811L288.583 74.2836ZM294.736 86.451L297.812 92.5347L299.597 91.6323L296.52 85.5485L294.736 86.451ZM300.888 98.6185L303.964 104.702L305.749 103.8L302.673 97.716L300.888 98.6185ZM307.041 110.786L308.579 113.828L310.363 112.925L308.825 109.883L307.041 110.786ZM308.579 113.828C309.125 114.908 309.635 116.004 310.107 117.114L311.948 116.33C311.458 115.181 310.93 114.045 310.363 112.925L308.579 113.828ZM312.503 123.952C313.15 126.281 313.645 128.65 313.982 131.044L315.962 130.765C315.613 128.284 315.101 125.829 314.429 123.416L312.503 123.952ZM314.52 138.269C314.53 139.475 314.501 140.683 314.432 141.892L316.429 142.006C316.5 140.754 316.53 139.502 316.52 138.252L314.52 138.269ZM314.432 141.892C314.363 143.101 314.254 144.304 314.107 145.501L316.092 145.746C316.245 144.506 316.357 143.259 316.429 142.006L314.432 141.892ZM312.75 152.616C312.143 154.955 311.382 157.252 310.473 159.492L312.326 160.244C313.268 157.923 314.056 155.543 314.686 153.119L312.75 152.616ZM307.315 166.01C306.719 167.058 306.088 168.089 305.422 169.1L307.092 170.2C307.782 169.153 308.436 168.085 309.054 166.999L307.315 166.01ZM305.421 169.1C304.98 169.771 304.354 170.725 303.573 171.916L305.246 173.013C306.027 171.822 306.652 170.869 307.092 170.199L305.421 169.1ZM299.851 177.599C298.719 179.328 297.47 181.236 296.133 183.28L297.806 184.375C299.144 182.332 300.392 180.423 301.524 178.695L299.851 177.599ZM292.422 188.954C291.221 190.791 289.978 192.692 288.709 194.632L290.383 195.726C291.652 193.786 292.894 191.885 294.096 190.048L292.422 188.954ZM284.996 200.312C283.763 202.199 282.522 204.099 281.284 205.993L282.959 207.087C284.196 205.193 285.438 203.293 286.67 201.407L284.996 200.312ZM277.574 211.673C276.314 213.603 275.073 215.503 273.868 217.35L275.542 218.443C276.748 216.596 277.989 214.696 279.249 212.767L277.574 211.673ZM270.154 223.04C268.841 225.053 267.598 226.959 266.451 228.718L268.127 229.81C269.274 228.051 270.516 226.146 271.829 224.133L270.154 223.04ZM262.753 234.398C262.054 235.472 261.434 236.426 260.907 237.239L262.584 238.328C263.111 237.515 263.731 236.562 264.429 235.488L262.753 234.398ZM260.907 237.239C260.246 238.257 259.553 239.251 258.829 240.22L260.431 241.417C261.181 240.413 261.899 239.383 262.584 238.328L260.907 237.239ZM254.108 245.739C252.415 247.474 250.609 249.095 248.703 250.592L249.939 252.164C251.914 250.613 253.785 248.934 255.539 247.136L254.108 245.739ZM242.708 254.692C241.667 255.307 240.605 255.89 239.521 256.437L240.424 258.222C241.546 257.655 242.648 257.051 243.726 256.413L242.708 254.692ZM239.521 256.437C238.438 256.985 237.339 257.496 236.227 257.969L237.01 259.81C238.163 259.319 239.301 258.79 240.424 258.222L239.521 256.437ZM229.371 260.367C227.035 261.015 224.66 261.508 222.259 261.844L222.536 263.824C225.023 263.477 227.485 262.966 229.905 262.294L229.371 260.367ZM215.015 262.374C213.806 262.382 212.595 262.351 211.383 262.28L211.266 264.277C212.521 264.351 213.777 264.383 215.03 264.374L215.015 262.374ZM211.384 262.28C210.478 262.226 209.423 262.165 208.238 262.096L208.123 264.093C209.307 264.161 210.361 264.223 211.265 264.277L211.384 262.28ZM201.939 261.739C199.989 261.63 197.876 261.512 195.64 261.388L195.529 263.385C197.765 263.509 199.878 263.627 201.827 263.736L201.939 261.739ZM189.341 261.041C187.298 260.928 185.192 260.813 183.045 260.695L182.936 262.692C185.082 262.81 187.188 262.925 189.231 263.038L189.341 261.041ZM176.747 260.35C175.7 260.292 174.65 260.235 173.598 260.177L173.488 262.174C174.54 262.232 175.591 262.289 176.637 262.347L176.747 260.35ZM173.598 260.177C172.493 260.117 171.386 260.056 170.28 259.995L170.17 261.992C171.276 262.053 172.383 262.114 173.488 262.174L173.598 260.177ZM163.644 259.632C161.395 259.508 159.174 259.386 157.008 259.267L156.898 261.264C159.065 261.383 161.285 261.505 163.534 261.629L163.644 259.632ZM150.372 258.901C149.24 258.838 148.133 258.777 147.056 258.717L146.944 260.713C148.022 260.773 149.129 260.835 150.262 260.898L150.372 258.901ZM147 259.715H145V261.607L146.889 261.712L147 259.715ZM173.543 261.176L173.652 259.179L173.543 261.176ZM211.324 263.279L211.205 265.275L211.207 265.275L211.324 263.279ZM239.973 257.33L239.07 255.545L239.973 257.33ZM261.745 237.783L263.423 238.872L263.423 238.872L261.745 237.783ZM306.257 169.65L304.587 168.549L304.586 168.551L306.257 169.65ZM315.43 141.949L313.433 141.835L315.43 141.949ZM309.471 113.376L307.686 114.279L307.686 114.279L309.471 113.376ZM272.556 40.3719L270.772 41.2742L270.772 41.2744L272.556 40.3719ZM253.283 18.7756L254.381 17.1044L253.283 18.7756ZM225.82 9.65066L225.697 11.6468L225.701 11.6471L225.82 9.65066ZM187.9 7.53817L187.791 9.53517L187.9 7.53817ZM147 5.27002L147.115 3.27335L145 3.15107V5.27002H147ZM147 71.585H145V74.7374L147.852 73.3944L147 71.585ZM160.732 68.9154L160.862 66.9196L160.853 66.919L160.844 66.9185L160.732 68.9154ZM185.989 70.3299L185.881 72.327L185.989 70.3299ZM202.067 71.2208L201.939 73.2167L201.946 73.2172L202.067 71.2208ZM225.667 86.7472L223.882 87.6491L223.882 87.6497L225.667 86.7472ZM244.337 123.67L245.239 125.455L247.024 124.553L246.122 122.768L244.337 123.67ZM244.298 123.69L243.395 121.906L241.61 122.809L242.513 124.594L244.298 123.69ZM247.312 138.123L245.315 138.009L247.312 138.123ZM242.677 152.116L244.344 153.222L244.347 153.217L242.677 152.116ZM220.188 186.547L221.862 187.641L221.868 187.632L220.188 186.547ZM194.752 199.408L194.622 201.404L194.632 201.405L194.641 201.405L194.752 199.408ZM172.27 198.149L172.162 200.146L172.27 198.149ZM153.26 197.084L153.399 195.089L153.392 195.088L153.26 197.084ZM147 195.955L147.574 194.039L145 193.269V195.955H147ZM149 259.715V256.527H145V259.715H149ZM149 250.151V243.775H145V250.151H149ZM149 237.399V231.023H145V237.399H149ZM149 224.647V218.271H145V224.647H149ZM149 211.895V205.519H145V211.895H149ZM149 199.143V195.955H145V199.143H149ZM146.426 197.871C146.971 198.034 147.52 198.182 148.074 198.314L149.004 194.424C148.523 194.309 148.046 194.181 147.574 194.039L146.426 197.871ZM151.43 198.919C151.994 198.989 152.56 199.042 153.128 199.08L153.392 195.088C152.899 195.056 152.407 195.009 151.918 194.949L151.43 198.919ZM153.121 199.079C154.024 199.142 155.71 199.242 157.898 199.366L158.124 195.372C155.931 195.248 154.272 195.15 153.399 195.089L153.121 199.079ZM167.409 199.889C168.953 199.973 170.55 200.059 172.162 200.146L172.378 196.152C170.766 196.065 169.17 195.978 167.626 195.895L167.409 199.889ZM172.162 200.146C173.096 200.197 174.035 200.247 174.973 200.298L175.189 196.304C174.251 196.253 173.312 196.202 172.378 196.152L172.162 200.146ZM180.593 200.603C182.561 200.711 184.458 200.815 186.213 200.913L186.435 196.919C184.678 196.821 182.78 196.717 180.811 196.609L180.593 200.603ZM191.826 201.233C192.937 201.298 193.882 201.356 194.622 201.404L194.883 197.413C194.131 197.364 193.176 197.305 192.062 197.24L191.826 201.233ZM194.641 201.405C195.975 201.48 197.308 201.466 198.631 201.366L198.33 197.378C197.18 197.464 196.023 197.476 194.864 197.412L194.641 201.405ZM206.426 199.736C207.678 199.297 208.905 198.775 210.097 198.172L208.292 194.603C207.256 195.126 206.191 195.58 205.102 195.961L206.426 199.736ZM210.097 198.172C211.289 197.57 212.436 196.891 213.532 196.143L211.276 192.839C210.324 193.49 209.327 194.079 208.292 194.603L210.097 198.172ZM219.466 190.831C220.33 189.825 221.131 188.759 221.862 187.641L218.514 185.453C217.879 186.425 217.183 187.35 216.431 188.225L219.466 190.831ZM221.868 187.632C222.347 186.891 222.978 185.918 223.724 184.77L220.37 182.59C219.623 183.74 218.99 184.716 218.508 185.462L221.868 187.632ZM227.466 179.022C228.647 177.209 229.917 175.264 231.211 173.281L227.861 171.094C226.567 173.078 225.297 175.024 224.115 176.838L227.466 179.022ZM234.96 167.54C236.269 165.538 237.541 163.593 238.711 161.805L235.364 159.614C234.193 161.404 232.921 163.35 231.612 165.352L234.96 167.54ZM242.471 156.066C243.318 154.776 243.966 153.792 244.344 153.222L241.01 151.011C240.627 151.59 239.974 152.581 239.127 153.871L242.471 156.066ZM244.347 153.217C245.082 152.102 245.74 150.944 246.318 149.75L242.719 148.006C242.217 149.042 241.645 150.048 241.007 151.016L244.347 153.217ZM248.821 142.195C249.069 140.892 249.233 139.57 249.309 138.237L245.315 138.009C245.249 139.167 245.107 140.315 244.891 141.446L248.821 142.195ZM249.309 138.237C249.385 136.904 249.372 135.572 249.274 134.248L245.285 134.546C245.37 135.695 245.381 136.852 245.315 138.009L249.309 138.237ZM247.646 126.456C247.207 125.204 246.685 123.978 246.082 122.787L242.513 124.594C243.037 125.628 243.49 126.693 243.872 127.78L247.646 126.456ZM245.2 125.475L245.21 125.47L243.405 121.901L243.395 121.906L245.2 125.475ZM245.23 125.46L245.239 125.455L243.434 121.886L243.424 121.891L245.23 125.46ZM246.122 122.768L244.566 119.691L240.996 121.496L242.552 124.573L246.122 122.768ZM241.454 113.537L238.342 107.383L234.773 109.188L237.884 115.342L241.454 113.537ZM235.231 101.229L232.119 95.0756L228.549 96.8805L231.661 103.034L235.231 101.229ZM229.007 88.9217L227.451 85.8448L223.882 87.6497L225.438 90.7267L229.007 88.9217ZM227.452 85.8454C226.855 84.6638 226.183 83.5265 225.443 82.4395L222.137 84.6917C222.78 85.6355 223.363 86.6232 223.882 87.6491L227.452 85.8454ZM220.19 76.5498C219.194 75.6902 218.14 74.8935 217.035 74.1659L214.836 77.5075C215.796 78.1393 216.711 78.8311 217.576 79.5775L220.19 76.5498ZM217.035 74.1659C215.929 73.4385 214.781 72.7865 213.597 72.2126L211.852 75.8115C212.879 76.3098 213.876 76.8759 214.836 77.5075L217.035 74.1659ZM206.111 69.7206C204.82 69.4709 203.51 69.3047 202.189 69.2245L201.946 73.2172C203.093 73.2868 204.231 73.4311 205.352 73.6479L206.111 69.7206ZM202.195 69.2249C201.403 69.1741 199.992 69.0928 198.16 68.9906L197.938 72.9844C199.772 73.0868 201.166 73.1671 201.939 73.2167L202.195 69.2249ZM190.117 68.5504C188.821 68.4802 187.473 68.4073 186.097 68.3328L185.881 72.327C187.257 72.4014 188.605 72.4743 189.901 72.5446L190.117 68.5504ZM186.097 68.3328C185.057 68.2766 184.002 68.2195 182.94 68.162L182.724 72.1561C183.786 72.2136 184.841 72.2707 185.881 72.327L186.097 68.3328ZM176.625 67.8189C174.429 67.699 172.294 67.5816 170.311 67.4712L170.089 71.465C172.073 71.5755 174.21 71.693 176.407 71.8129L176.625 67.8189ZM164.005 67.1121C162.745 67.038 161.679 66.9729 160.862 66.9196L160.602 70.9111C161.431 70.9652 162.507 71.0309 163.77 71.1052L164.005 67.1121ZM160.844 66.9185C159.581 66.8477 158.319 66.8557 157.065 66.9411L157.337 70.9319C158.427 70.8577 159.523 70.8507 160.62 70.9122L160.844 66.9185ZM149.66 68.3806C148.465 68.7715 147.292 69.237 146.148 69.7755L147.852 73.3944C148.846 72.9265 149.865 72.5221 150.903 72.1825L149.66 68.3806ZM149 71.585V68.2692H145V71.585H149ZM149 61.6377V55.0062H145V61.6377H149ZM149 48.3747V41.7432H145V48.3747H149ZM149 35.1117V28.4803H145V35.1117H149ZM149 21.8488V15.2173H145V21.8488H149ZM149 8.58576V5.27002H145V8.58576H149ZM146.885 7.26669C147.922 7.32667 149.062 7.39188 150.291 7.46165L150.518 3.46809C149.29 3.39837 148.151 3.33324 147.115 3.27335L146.885 7.26669ZM157.113 7.84516C159.258 7.96485 161.543 8.09169 163.928 8.22364L164.149 4.22974C161.764 4.09782 159.48 3.97102 157.335 3.85137L157.113 7.84516ZM170.747 8.59977C172.978 8.72261 175.26 8.84797 177.565 8.97448L177.784 4.98049C175.48 4.85399 173.198 4.72864 170.966 4.60581L170.747 8.59977ZM184.382 9.34836C185.52 9.41073 186.657 9.47306 187.791 9.53517L188.01 5.54117C186.876 5.47905 185.739 5.41673 184.601 5.35436L184.382 9.34836ZM187.791 9.53517C188.848 9.59313 189.903 9.65091 190.951 9.70838L191.17 5.71437C190.122 5.6569 189.067 5.59913 188.01 5.54117L187.791 9.53517ZM197.272 10.055C199.437 10.1739 201.553 10.2901 203.594 10.4024L203.814 6.40843C201.773 6.29611 199.657 6.17988 197.491 6.061L197.272 10.055ZM209.913 10.751C212.188 10.8769 214.31 10.9948 216.232 11.1024L216.455 7.1086C214.533 7.00103 212.41 6.88307 210.134 6.75711L209.913 10.751ZM222.55 11.4603C223.872 11.5366 224.935 11.5996 225.697 11.6468L225.944 7.6545C225.174 7.6067 224.104 7.54339 222.781 7.46696L222.55 11.4603ZM225.701 11.6471C226.877 11.7177 228.048 11.8266 229.213 11.9732L229.713 8.00456C228.462 7.84711 227.204 7.73013 225.94 7.65426L225.701 11.6471ZM236.137 13.3079C238.413 13.9028 240.649 14.6456 242.829 15.5315L244.335 11.8258C241.994 10.8745 239.593 10.0768 237.148 9.43787L236.137 13.3079ZM249.175 18.6062C250.196 19.1858 251.199 19.7996 252.184 20.4469L254.381 17.1044C253.324 16.4092 252.246 15.7501 251.15 15.1277L249.175 18.6062ZM252.184 20.4469C253.169 21.0943 254.131 21.7726 255.068 22.4801L257.478 19.2878C256.472 18.5279 255.439 17.7996 254.381 17.1044L252.184 20.4469ZM260.409 27.0877C262.087 28.738 263.656 30.4959 265.105 32.3503L268.257 29.8869C266.7 27.8956 265.015 26.0078 263.213 24.2357L260.409 27.0877ZM269.078 38.1785C269.675 39.1898 270.24 40.2222 270.772 41.2742L274.341 39.4697C273.77 38.34 273.164 37.2315 272.523 36.1454L269.078 38.1785ZM270.772 41.2744L272.31 44.3163L275.879 42.5113L274.341 39.4694L270.772 41.2744ZM275.386 50.4L278.462 56.4837L282.032 54.6787L278.956 48.595L275.386 50.4ZM281.538 62.5674L284.615 68.6511L288.184 66.8462L285.108 60.7624L281.538 62.5674ZM287.691 74.7348L290.767 80.8186L294.337 79.0136L291.26 72.9299L287.691 74.7348ZM293.843 86.9023L296.919 92.986L300.489 91.181L297.413 85.0973L293.843 86.9023ZM299.996 99.0697L303.072 105.153L306.642 103.348L303.565 97.2647L299.996 99.0697ZM306.148 111.237L307.686 114.279L311.256 112.474L309.718 109.432L306.148 111.237ZM307.686 114.279C308.223 115.34 308.723 116.416 309.187 117.506L312.868 115.939C312.369 114.769 311.832 113.613 311.256 112.474L307.686 114.279ZM311.539 124.22C312.175 126.507 312.66 128.833 312.992 131.183L316.953 130.625C316.597 128.102 316.076 125.604 315.393 123.148L311.539 124.22ZM313.52 138.278C313.53 139.462 313.501 140.648 313.433 141.835L317.427 142.063C317.5 140.789 317.53 139.515 317.52 138.243L313.52 138.278ZM313.433 141.835C313.366 143.022 313.259 144.204 313.114 145.379L317.084 145.868C317.24 144.607 317.354 143.338 317.427 142.063L313.433 141.835ZM311.782 152.365C311.186 154.662 310.439 156.917 309.547 159.116L313.253 160.62C314.211 158.259 315.013 155.837 315.654 153.37L311.782 152.365ZM306.446 165.516C305.861 166.545 305.241 167.557 304.587 168.549L307.927 170.75C308.629 169.685 309.295 168.598 309.923 167.493L306.446 165.516ZM304.586 168.551C304.144 169.222 303.518 170.176 302.737 171.368L306.082 173.561C306.863 172.37 307.488 171.418 307.928 170.749L304.586 168.551ZM299.014 177.052C297.882 178.78 296.633 180.689 295.296 182.733L298.643 184.923C299.98 182.879 301.229 180.971 302.361 179.242L299.014 177.052ZM291.585 188.406C290.384 190.243 289.141 192.144 287.872 194.085L291.22 196.273C292.489 194.333 293.731 192.432 294.933 190.596L291.585 188.406ZM284.159 199.765C282.926 201.652 281.684 203.552 280.447 205.446L283.796 207.634C285.033 205.74 286.275 203.84 287.507 201.954L284.159 199.765ZM276.737 211.126C275.477 213.056 274.236 214.956 273.03 216.803L276.38 218.99C277.585 217.143 278.826 215.243 280.086 213.314L276.737 211.126ZM269.317 222.494C268.003 224.507 266.761 226.412 265.614 228.172L268.965 230.356C270.111 228.597 271.354 226.692 272.667 224.679L269.317 222.494ZM261.915 233.852C261.215 234.927 260.596 235.881 260.068 236.695L263.423 238.872C263.95 238.06 264.569 237.108 265.268 236.033L261.915 233.852ZM260.068 236.694C259.419 237.694 258.738 238.67 258.028 239.621L261.232 242.015C261.995 240.994 262.726 239.946 263.423 238.872L260.068 236.694ZM253.393 245.041C251.73 246.744 249.957 248.335 248.086 249.805L250.556 252.951C252.566 251.373 254.47 249.664 256.255 247.835L253.393 245.041ZM242.199 253.831C241.177 254.435 240.134 255.007 239.07 255.545L240.875 259.115C242.017 258.537 243.138 257.923 244.235 257.274L242.199 253.831ZM239.07 255.545C238.007 256.083 236.928 256.584 235.835 257.049L237.401 260.73C238.574 260.231 239.733 259.692 240.875 259.115L239.07 255.545ZM229.103 259.403C226.81 260.04 224.478 260.524 222.121 260.853L222.674 264.815C225.205 264.461 227.71 263.941 230.173 263.258L229.103 259.403ZM215.008 261.374C213.821 261.382 212.631 261.352 211.442 261.282L211.207 265.275C212.485 265.35 213.762 265.383 215.037 265.374L215.008 261.374ZM211.444 261.282C210.537 261.228 209.481 261.166 208.295 261.098L208.065 265.091C209.249 265.16 210.302 265.221 211.205 265.275L211.444 261.282ZM201.995 260.741C200.045 260.631 197.932 260.514 195.695 260.39L195.474 264.384C197.71 264.508 199.822 264.625 201.771 264.734L201.995 260.741ZM189.396 260.042C187.353 259.93 185.247 259.814 183.1 259.696L182.881 263.69C185.027 263.808 187.134 263.924 189.176 264.036L189.396 260.042ZM176.801 259.351C175.755 259.294 174.705 259.236 173.652 259.179L173.434 263.173C174.486 263.23 175.536 263.288 176.583 263.345L176.801 259.351ZM173.652 259.179C172.547 259.118 171.44 259.058 170.334 258.997L170.116 262.991C171.222 263.052 172.329 263.112 173.434 263.173L173.652 259.179ZM163.698 258.633C161.45 258.51 159.229 258.388 157.063 258.269L156.843 262.263C159.01 262.382 161.23 262.504 163.479 262.627L163.698 258.633ZM150.427 257.902C149.296 257.84 148.189 257.778 147.111 257.718L146.889 261.712C147.967 261.772 149.074 261.833 150.206 261.896L150.427 257.902Z" fill="#AAAAAA" mask="url(#path-2-inside-1)"/>
<path fill-rule="evenodd" clip-rule="evenodd" d="M157 5.724C152.414 5.46705 148.604 5.24976 146.014 5.09502C136.036 4.51329 126.085 6.60373 117.186 11.1509C108.287 15.698 100.763 22.5374 95.3882 30.964C87.3472 43.5935 56.5722 90.4388 51.1085 98.7555L51.0326 98.871C45.6217 107.127 42.4836 116.666 41.9346 126.525C41.3857 136.384 43.4455 146.215 47.9062 155.026L84.8307 228.05C89.2389 236.743 95.8328 244.139 103.964 249.51C112.095 254.882 121.482 258.044 131.203 258.685C134.8 258.924 144.916 259.492 157 260.158V197.194C156.266 197.15 155.677 197.113 155.26 197.084C150.34 196.759 145.589 195.156 141.476 192.433C137.363 189.71 134.031 185.961 131.808 181.557L113.158 144.673C110.906 140.223 109.867 135.259 110.145 130.28C110.422 125.302 112.007 120.485 114.739 116.316C115.43 115.256 117.023 112.827 119.069 109.706C124.813 100.946 134.134 86.7316 137.141 82.0032C139.864 77.7486 143.668 74.2947 148.165 71.995C150.947 70.5721 153.933 69.6227 157 69.1726V5.724Z" fill="#FF8000"/>
</svg>
