<svg width="276" height="389" viewBox="0 0 276 389" fill="none" xmlns="http://www.w3.org/2000/svg">
<path fill-rule="evenodd" clip-rule="evenodd" d="M206.903 20.906C186.514 7.27919 162.543 0.0038994 138.02 1.56646e-06C121.732 -0.0025872 105.604 3.20353 90.5563 9.43519C75.5084 15.6668 61.8356 24.8019 50.3188 36.3187C38.8019 47.8356 29.6668 61.5085 23.4351 76.5564C17.2035 91.6043 13.9974 107.732 14 124.02C14.0039 148.543 21.2792 172.514 34.906 192.903C42.1175 203.693 50.9365 213.223 61 221.196V174H82.9487C73.8879 164.024 67.6909 151.755 65.0531 138.494C62.1825 124.063 63.6558 109.104 69.2866 95.5101C74.9175 81.916 84.4531 70.297 96.6874 62.1222C108.922 53.9475 123.306 49.5843 138.02 49.5843C157.751 49.5843 176.674 57.4224 190.626 71.3743C204.578 85.3263 212.416 104.249 212.416 123.98C212.416 138.694 208.052 153.078 199.878 165.312C197.825 168.385 195.555 171.287 193.091 174H215V221.196C218.728 218.242 222.295 215.067 225.681 211.681C243.022 194.341 254.831 172.248 259.616 148.196C264.402 124.144 261.948 99.2136 252.565 76.5564C243.182 53.8992 227.292 34.5328 206.903 20.906Z" fill="#1271D8"/>
<mask id="path-2-inside-1" fill="white">
<path fill-rule="evenodd" clip-rule="evenodd" d="M215 221.196C199.638 233.366 181.551 241.766 162.196 245.616C138.144 250.402 113.214 247.948 90.5563 238.565C79.8897 234.148 69.9524 228.288 61 221.196V174H82.9487C83.7482 174.88 84.57 175.743 85.4137 176.586C95.8182 186.991 109.074 194.076 123.506 196.947C137.937 199.817 152.896 198.344 166.49 192.713C176.67 188.496 185.743 182.09 193.091 174H215V221.196Z"/>
</mask>
<path d="M215 221.196L215.621 221.98L216 221.679V221.196H215ZM162.196 245.616L162.001 244.636L162.196 245.616ZM90.5563 238.565L90.9389 237.641L90.5563 238.565ZM61 221.196H60V221.679L60.379 221.979L61 221.196ZM61 174V173H60V174H61ZM82.9487 174L83.689 173.328L83.3914 173H82.9487V174ZM85.4137 176.586L86.1208 175.879L86.1208 175.879L85.4137 176.586ZM123.506 196.947L123.311 197.928L123.506 196.947ZM166.49 192.713L166.107 191.789L166.49 192.713ZM193.091 174V173H192.648L192.35 173.328L193.091 174ZM215 174H216V173H215V174ZM214.379 220.412C213.427 221.166 212.465 221.905 211.492 222.63L212.687 224.234C213.676 223.497 214.654 222.746 215.621 221.98L214.379 220.412ZM205.528 226.805C203.499 228.139 201.431 229.411 199.328 230.62L200.325 232.354C202.462 231.125 204.564 229.832 206.626 228.477L205.528 226.805ZM192.912 234.062C190.741 235.145 188.537 236.164 186.304 237.118L187.09 238.957C189.359 237.988 191.598 236.953 193.805 235.852L192.912 234.062ZM179.527 239.778C177.245 240.596 174.937 241.348 172.604 242.032L173.167 243.951C175.537 243.256 177.883 242.492 180.202 241.66L179.527 239.778ZM165.561 243.872C164.379 244.144 163.192 244.399 162.001 244.636L162.391 246.597C163.602 246.356 164.808 246.098 166.009 245.822L165.561 243.872ZM162.001 244.636C160.815 244.871 159.627 245.09 158.438 245.29L158.77 247.262C159.979 247.059 161.186 246.837 162.391 246.597L162.001 244.636ZM151.263 246.283C148.859 246.544 146.45 246.733 144.041 246.852L144.14 248.849C146.588 248.729 149.035 248.536 151.478 248.271L151.263 246.283ZM136.799 246.994C134.383 246.971 131.969 246.876 129.561 246.71L129.424 248.705C131.871 248.874 134.324 248.97 136.779 248.994L136.799 246.994ZM122.352 246.001C119.957 245.693 117.572 245.316 115.197 244.868L114.827 246.833C117.239 247.288 119.664 247.672 122.098 247.984L122.352 246.001ZM108.122 243.316C105.782 242.73 103.457 242.075 101.15 241.35L100.551 243.258C102.895 243.995 105.258 244.661 107.636 245.256L108.122 243.316ZM94.306 238.978C93.1783 238.549 92.0558 238.103 90.9389 237.641L90.1737 239.489C91.3088 239.959 92.4495 240.412 93.5955 240.847L94.306 238.978ZM90.9389 237.641C89.624 237.096 88.3202 236.53 87.0281 235.941L86.1993 237.762C87.5124 238.359 88.8374 238.935 90.1737 239.489L90.9389 237.641ZM79.3948 232.141C76.8918 230.784 74.44 229.343 72.0433 227.821L70.9708 229.509C73.4065 231.056 75.8982 232.521 78.4419 233.899L79.3948 232.141ZM65.0088 223.001C63.8645 222.158 62.735 221.294 61.621 220.412L60.379 221.979C61.5112 222.876 62.659 223.754 63.8219 224.611L65.0088 223.001ZM62 221.196V217.263H60V221.196H62ZM62 209.397V201.531H60V209.397H62ZM62 193.665V185.799H60V193.665H62ZM62 177.933V174H60V177.933H62ZM61 175H63.7436V173H61V175ZM69.2308 175H74.718V173H69.2308V175ZM80.2051 175H82.9487V173H80.2051V175ZM82.2085 174.672C82.4113 174.896 82.6155 175.118 82.8212 175.339L84.2854 173.976C84.0852 173.761 83.8864 173.545 83.689 173.328L82.2085 174.672ZM84.0703 176.649C84.281 176.865 84.4931 177.08 84.7066 177.293L86.1208 175.879C85.913 175.671 85.7065 175.462 85.5014 175.252L84.0703 176.649ZM84.7066 177.293C85.5805 178.167 86.4742 179.018 87.3869 179.845L88.73 178.363C87.8416 177.558 86.9715 176.73 86.1208 175.879L84.7066 177.293ZM93.1063 184.539C95.0908 186.011 97.1441 187.382 99.2584 188.65L100.287 186.934C98.2284 185.701 96.2295 184.365 94.2976 182.933L93.1063 184.539ZM105.784 192.137C108.012 193.191 110.293 194.137 112.619 194.969L113.293 193.086C111.029 192.276 108.808 191.355 106.639 190.33L105.784 192.137ZM119.7 197.117C120.895 197.416 122.099 197.686 123.311 197.928L123.701 195.966C122.521 195.731 121.349 195.468 120.186 195.177L119.7 197.117ZM123.311 197.928C124.523 198.169 125.739 198.38 126.957 198.56L127.25 196.582C126.064 196.406 124.881 196.201 123.701 195.966L123.311 197.928ZM134.32 199.286C136.788 199.407 139.257 199.406 141.719 199.286L141.621 197.288C139.224 197.406 136.821 197.406 134.418 197.288L134.32 199.286ZM149.083 198.56C151.521 198.199 153.943 197.717 156.339 197.117L155.853 195.177C153.52 195.761 151.163 196.23 148.789 196.582L149.083 198.56ZM163.42 194.969C164.579 194.554 165.731 194.11 166.872 193.637L166.107 191.789C164.996 192.25 163.875 192.682 162.746 193.086L163.42 194.969ZM166.872 193.637C168.154 193.106 169.418 192.541 170.664 191.943L169.798 190.14C168.586 190.722 167.355 191.273 166.107 191.789L166.872 193.637ZM177.939 187.941C180.291 186.473 182.558 184.878 184.73 183.164L183.491 181.594C181.377 183.263 179.17 184.815 176.88 186.244L177.939 187.941ZM190.955 177.669C191.94 176.697 192.899 175.698 193.831 174.672L192.35 173.328C191.443 174.326 190.51 175.299 189.551 176.244L190.955 177.669ZM193.091 175H195.829V173H193.091V175ZM201.307 175H206.784V173H201.307V175ZM212.261 175H215V173H212.261V175ZM214 174V177.933H216V174H214ZM214 185.799V193.665H216V185.799H214ZM214 201.531V209.397H216V201.531H214ZM214 217.263V221.196H216V217.263H214ZM215 221.196L216.242 222.763L217 222.163V221.196H215ZM162.196 245.616L161.806 243.655L162.196 245.616ZM90.5563 238.565L91.3216 236.717H91.3216L90.5563 238.565ZM61 221.196H59V222.163L59.7581 222.763L61 221.196ZM61 174V172H59V174H61ZM82.9487 174L84.4292 172.655L83.834 172H82.9487V174ZM85.4137 176.586L86.8279 175.172V175.172L85.4137 176.586ZM123.506 196.947L123.116 198.908H123.116L123.506 196.947ZM166.49 192.713L165.724 190.866L166.49 192.713ZM193.091 174V172H192.205L191.61 172.655L193.091 174ZM215 174H217V172H215V174ZM213.758 219.628C212.814 220.376 211.859 221.109 210.895 221.828L213.285 225.036C214.281 224.293 215.267 223.536 216.242 222.763L213.758 219.628ZM204.979 225.97C202.966 227.292 200.915 228.554 198.829 229.754L200.823 233.221C202.978 231.982 205.096 230.678 207.175 229.313L204.979 225.97ZM192.466 233.167C190.312 234.242 188.126 235.253 185.911 236.198L187.482 239.877C189.77 238.9 192.027 237.856 194.251 236.746L192.466 233.167ZM179.189 238.837C176.926 239.648 174.636 240.394 172.323 241.072L173.448 244.911C175.838 244.21 178.202 243.44 180.54 242.602L179.189 238.837ZM165.337 242.898C164.165 243.167 162.988 243.42 161.806 243.655L162.586 247.578C163.807 247.335 165.022 247.074 166.233 246.796L165.337 242.898ZM161.806 243.655C160.63 243.889 159.452 244.105 158.272 244.304L158.936 248.248C160.155 248.043 161.372 247.82 162.586 247.578L161.806 243.655ZM151.155 245.289C148.77 245.547 146.382 245.735 143.992 245.853L144.189 249.848C146.657 249.727 149.123 249.533 151.586 249.265L151.155 245.289ZM136.809 245.994C134.412 245.971 132.018 245.877 129.629 245.712L129.355 249.703C131.822 249.873 134.295 249.97 136.77 249.994L136.809 245.994ZM122.479 245.009C120.104 244.704 117.738 244.329 115.383 243.885L114.641 247.816C117.073 248.275 119.517 248.662 121.97 248.976L122.479 245.009ZM108.365 242.346C106.044 241.765 103.738 241.115 101.45 240.396L100.251 244.212C102.615 244.955 104.996 245.626 107.393 246.226L108.365 242.346ZM94.6612 238.043C93.5427 237.618 92.4294 237.176 91.3216 236.717L89.7911 240.413C90.9352 240.886 92.0851 241.343 93.2402 241.782L94.6612 238.043ZM91.3216 236.717C90.0173 236.177 88.7241 235.615 87.4425 235.031L85.7849 238.672C87.1085 239.274 88.4441 239.855 89.7911 240.413L91.3216 236.717ZM79.8713 231.262C77.3886 229.916 74.9567 228.487 72.5795 226.977L70.4346 230.353C72.8897 231.913 75.4014 233.389 77.9655 234.778L79.8713 231.262ZM65.6022 222.197C64.4672 221.36 63.3469 220.503 62.2419 219.628L59.7581 222.763C60.8993 223.667 62.0563 224.552 63.2285 225.416L65.6022 222.197ZM63 221.196V217.263H59V221.196H63ZM63 209.397V201.531H59V209.397H63ZM63 193.665V185.799H59V193.665H63ZM63 177.933V174H59V177.933H63ZM61 176H63.7436V172H61V176ZM69.2308 176H74.718V172H69.2308V176ZM80.2051 176H82.9487V172H80.2051V176ZM81.4683 175.345C81.6738 175.571 81.8807 175.796 82.0891 176.02L85.0175 173.295C84.82 173.083 84.6239 172.87 84.4292 172.655L81.4683 175.345ZM83.3548 177.348C83.5683 177.567 83.7832 177.784 83.9995 178L86.8279 175.172C86.6229 174.967 86.4193 174.761 86.2169 174.554L83.3548 177.348ZM83.9995 178C84.8849 178.886 85.7906 179.748 86.7153 180.586L89.4015 177.622C88.5252 176.828 87.667 176.011 86.8279 175.172L83.9995 178ZM92.5106 185.342C94.5214 186.834 96.602 188.223 98.7443 189.507L100.801 186.076C98.7705 184.86 96.7989 183.543 94.8933 182.129L92.5106 185.342ZM105.356 193.041C107.614 194.109 109.925 195.067 112.283 195.911L113.63 192.144C111.396 191.345 109.206 190.437 107.066 189.426L105.356 193.041ZM119.457 198.087C120.667 198.39 121.887 198.664 123.116 198.908L123.896 194.985C122.732 194.754 121.576 194.494 120.429 194.207L119.457 198.087ZM123.116 198.908C124.344 199.153 125.576 199.366 126.81 199.549L127.397 195.593C126.227 195.419 125.06 195.217 123.896 194.985L123.116 198.908ZM134.271 200.284C136.772 200.407 139.274 200.407 141.768 200.284L141.572 196.289C139.208 196.405 136.837 196.406 134.467 196.289L134.271 200.284ZM149.229 199.549C151.7 199.183 154.154 198.695 156.582 198.087L155.61 194.207C153.309 194.783 150.984 195.245 148.642 195.593L149.229 199.549ZM163.757 195.911C164.932 195.49 166.098 195.04 167.255 194.561L165.724 190.866C164.628 191.32 163.523 191.746 162.409 192.144L163.757 195.911ZM167.255 194.561C168.554 194.023 169.835 193.451 171.097 192.844L169.365 189.239C168.169 189.813 166.955 190.356 165.724 190.866L167.255 194.561ZM178.469 188.789C180.852 187.302 183.149 185.686 185.35 183.949L182.872 180.809C180.786 182.455 178.609 183.987 176.351 185.396L178.469 188.789ZM191.657 178.381C192.655 177.396 193.627 176.384 194.571 175.345L191.61 172.655C190.715 173.64 189.795 174.6 188.849 175.532L191.657 178.381ZM193.091 176H195.829V172H193.091V176ZM201.307 176H206.784V172H201.307V176ZM212.261 176H215V172H212.261V176ZM213 174V177.933H217V174H213ZM213 185.799V193.665H217V185.799H213ZM213 201.531V209.397H217V201.531H213ZM213 217.263V221.196H217V217.263H213Z" fill="#BBBBBB" mask="url(#path-2-inside-1)"/>
<path d="M276 113V389H0V113H276ZM61.4064 174.34V327.659H214.659V174.34H61.4064Z" fill="#FFD501"/>
</svg>
