<svg width="311" height="304" viewBox="0 0 311 304" fill="none" xmlns="http://www.w3.org/2000/svg">
<path d="M109.171 22.4071C105.336 20.161 82.4902 7.03824 76.4297 3.50714C72.4418 1.19123 67.9084 -0.0193297 63.2969 0.000233402C58.6853 0.0197965 54.1624 1.26877 50.1943 3.61844C44.2248 7.15966 21.6115 20.1408 17.787 22.3363C13.8394 24.6084 10.5607 27.8812 8.28167 31.8247C6.00259 35.7682 4.8037 40.243 4.80591 44.7978V82.5371C4.81121 87.0321 5.98667 91.4483 8.21663 95.3512C10.4466 99.2541 13.6542 102.509 17.524 104.796C21.389 107.083 44.326 120.246 50.3865 123.777C54.3458 126.078 58.8437 127.291 63.4233 127.291C68.0028 127.291 72.5007 126.078 76.46 123.777C82.5307 120.246 105.184 107.174 108.979 104.999C112.941 102.731 116.234 99.4564 118.525 95.5067C120.815 91.5571 122.021 87.0724 122.02 82.5067V44.7775C122.021 40.2509 120.835 35.8032 118.58 31.878C116.326 27.9528 113.081 24.6873 109.171 22.4071ZM93.033 73.1882C93.0341 75.4947 92.4255 77.7604 91.2687 79.7558C90.112 81.7512 88.4483 83.4053 86.4463 84.5505C84.5239 85.6432 73.0807 92.2501 70.015 94.041C68.0155 95.1954 65.7473 95.8032 63.4384 95.8032C61.1296 95.8032 58.8614 95.1954 56.8619 94.041C53.8266 92.2501 42.2113 85.6129 40.2586 84.4493C38.3001 83.2915 36.6773 81.6429 35.5506 79.6663C34.4239 77.6896 33.8322 75.4533 33.8338 73.1781V54.1162C33.8332 51.8162 34.4389 49.5567 35.59 47.5654C36.741 45.5742 38.3967 43.9216 40.3901 42.7742C42.3125 41.6613 53.7456 35.1049 56.7607 33.3141C58.768 32.1297 61.054 31.4999 63.3847 31.4892C65.7154 31.4786 68.007 32.0874 70.0251 33.2534C73.0605 35.0442 84.6251 41.6613 86.5677 42.8046C88.542 43.9574 90.1797 45.6075 91.3176 47.5905C92.4555 49.5734 93.0539 51.8199 93.0532 54.1061C93.0532 57.8699 93.0532 69.4143 93.0532 73.1882H93.033Z" fill="#FF8000"/>
<path d="M127.332 176.263V303.595H0V176.263H127.332ZM28.3298 204.563V275.296H99.0328V204.563H28.3298Z" fill="#FFD501"/>
<path d="M240.247 176.263C252.837 176.265 265.144 180 275.611 186.996C286.079 193.992 294.237 203.935 299.054 215.567C303.871 227.199 305.131 239.998 302.674 252.346C300.217 264.694 294.154 276.037 285.252 284.939C276.349 293.842 265.007 299.905 252.659 302.362C240.311 304.818 227.511 303.558 215.879 298.741C204.247 293.924 194.305 285.766 187.309 275.299C180.313 264.831 176.578 252.524 176.576 239.934C176.574 231.573 178.22 223.292 181.42 215.567C184.619 207.841 189.309 200.822 195.221 194.909C201.134 188.996 208.154 184.306 215.879 181.107C223.605 177.908 231.885 176.262 240.247 176.263ZM240.247 201.72C232.693 201.72 225.308 203.96 219.027 208.156C212.746 212.353 207.85 218.319 204.96 225.298C202.069 232.277 201.312 239.956 202.786 247.366C204.26 254.775 207.897 261.58 213.239 266.922C218.581 272.263 225.386 275.901 232.795 277.375C240.204 278.849 247.884 278.092 254.863 275.201C261.842 272.311 267.808 267.415 272.004 261.134C276.201 254.853 278.441 247.468 278.441 239.914C278.441 229.784 274.417 220.069 267.254 212.906C260.092 205.744 250.377 201.72 240.247 201.72Z" fill="#1271D8"/>
<path d="M310.98 126.554H165.486L238.233 0.000976562L310.98 126.554ZM209.296 101.26H267.18L238.243 50.9136L209.296 101.26Z" fill="#00D478"/>
</svg>
