<svg width="408" height="485" viewBox="0 0 408 485" fill="none" xmlns="http://www.w3.org/2000/svg">
<path d="M397.043 156.27L403.937 156.854L403.853 157.85L405.579 157.996L404.6 159.409L405.423 159.978L401.499 165.643L400.677 165.074L396.753 170.739L397.575 171.308L393.651 176.974L392.829 176.404L388.906 182.069L389.728 182.639L385.804 188.304L384.982 187.735L381.058 193.4L381.88 193.969L377.957 199.634L377.135 199.065L373.211 204.73L374.033 205.3L370.109 210.965L369.287 210.396L365.364 216.061L366.186 216.63L362.262 222.295L361.44 221.726L357.516 227.391L358.338 227.961L354.415 233.626L353.593 233.056L349.669 238.722L350.491 239.291L346.567 244.956L345.745 244.387L341.822 250.052L342.644 250.622L338.72 256.287L337.898 255.717L333.974 261.383L334.796 261.952L330.873 267.617L330.051 267.048L326.127 272.713L326.949 273.282L323.025 278.948L322.203 278.378L318.279 284.044L319.102 284.613L315.178 290.278L314.356 289.709L310.432 295.374L311.254 295.943L307.33 301.609L306.508 301.039L302.585 306.704L303.407 307.274L299.483 312.939L298.661 312.37L294.737 318.035L295.559 318.604L291.636 324.27L290.814 323.7L286.89 329.365L287.712 329.935L283.788 335.6L282.966 335.031L279.043 340.696L279.865 341.265L275.941 346.93L275.119 346.361L271.195 352.026L272.017 352.596L268.094 358.261L267.272 357.692L263.348 363.357L264.17 363.926L260.246 369.591L259.424 369.022L255.5 374.687L256.323 375.257L252.399 380.922L251.577 380.352L247.653 386.018L248.475 386.587L244.552 392.252L243.729 391.683L239.806 397.348L240.628 397.918L236.704 403.583L235.882 403.013L231.958 408.679L232.781 409.248L228.857 414.913L228.035 414.344L227.056 415.756L226.313 414.192L225.41 414.621L222.439 408.373L223.342 407.943L220.372 401.694L219.468 402.124L216.498 395.875L217.401 395.446L214.43 389.197L213.527 389.626L210.556 383.377L211.46 382.948L208.489 376.699L207.586 377.128L204.615 370.88L205.518 370.45L202.548 364.201L201.644 364.631L198.674 358.382L199.577 357.953L196.606 351.704L195.703 352.133L192.732 345.884L193.636 345.455L190.665 339.206L189.762 339.636L186.791 333.387L187.694 332.957L184.724 326.709L183.82 327.138L180.85 320.889L181.753 320.46L178.782 314.211L177.879 314.64L174.908 308.391L175.812 307.962L172.841 301.713L171.938 302.143L168.967 295.894L169.87 295.464L166.9 289.216L165.997 289.645L163.026 283.396L163.929 282.967L160.958 276.718L160.055 277.147L157.085 270.899L157.988 270.469L155.017 264.22L154.114 264.65L151.143 258.401L152.046 257.972L149.076 251.723L148.173 252.152L145.202 245.903L146.105 245.474L143.134 239.225L142.231 239.655L139.261 233.406L140.164 232.976L137.193 226.728L136.29 227.157L133.319 220.908L134.222 220.479L131.252 214.23L130.349 214.659L127.378 208.41L128.281 207.981L125.31 201.732L124.407 202.162L121.437 195.913L122.34 195.484L119.369 189.235L118.466 189.664L115.495 183.415L116.398 182.986L113.428 176.737L112.525 177.166L109.554 170.918L110.457 170.488L107.487 164.239L106.583 164.669L103.613 158.42L104.516 157.991L101.545 151.742L100.642 152.171L97.6714 145.922L98.5745 145.493L95.6038 139.244L94.7007 139.673L91.73 133.425L92.6332 132.995L91.8955 131.444L93.6075 131.588L93.6919 130.592L100.586 131.176L100.502 132.172L107.396 132.756L107.481 131.759L114.375 132.343L114.291 133.339L121.185 133.923L121.269 132.926L128.164 133.51L128.079 134.506L134.974 135.09L135.058 134.094L141.952 134.677L141.868 135.674L148.762 136.257L148.847 135.261L155.741 135.844L155.657 136.841L162.551 137.424L162.635 136.428L169.53 137.011L169.445 138.008L176.34 138.591L176.424 137.595L183.318 138.179L183.234 139.175L190.128 139.759L190.213 138.762L197.107 139.346L197.023 140.342L203.917 140.926L204.001 139.929L210.896 140.513L210.811 141.509L217.706 142.093L217.79 141.097L224.684 141.68L224.6 142.677L231.494 143.26L231.579 142.264L238.473 142.847L238.389 143.844L245.283 144.427L245.367 143.431L252.262 144.015L252.177 145.011L259.072 145.595L259.156 144.598L266.05 145.182L265.966 146.178L272.86 146.762L272.945 145.765L279.839 146.349L279.755 147.345L286.649 147.929L286.733 146.932L293.628 147.516L293.543 148.513L300.438 149.096L300.522 148.1L307.416 148.683L307.332 149.68L314.226 150.263L314.311 149.267L321.205 149.85L321.121 150.847L328.015 151.43L328.099 150.434L334.994 151.018L334.909 152.014L341.804 152.598L341.888 151.601L348.782 152.185L348.698 153.181L355.592 153.765L355.677 152.768L362.571 153.352L362.487 154.348L369.381 154.932L369.465 153.936L376.36 154.519L376.275 155.516L383.17 156.099L383.254 155.103L390.148 155.686L390.064 156.683L396.958 157.266L397.043 156.27ZM234.99 308.296C235.143 308.618 235.456 308.835 235.812 308.863C236.167 308.892 236.512 308.729 236.715 308.436L238.709 305.556L237.887 304.987L241.877 299.227L242.699 299.796L246.688 294.036L245.866 293.467L249.855 287.707L250.677 288.276L254.666 282.516L253.844 281.947L257.834 276.187L258.656 276.757L262.645 270.997L261.823 270.427L265.812 264.667L266.634 265.237L270.623 259.477L269.801 258.907L273.791 253.148L274.613 253.717L278.602 247.957L277.78 247.388L281.769 241.628L282.591 242.197L286.581 236.437L285.758 235.868L289.748 230.108L290.57 230.677L294.559 224.917L293.737 224.348L297.726 218.588L298.548 219.157L302.538 213.398L301.715 212.828L305.705 207.068L306.527 207.638L308.521 204.758C308.725 204.464 308.756 204.085 308.604 203.762C308.452 203.439 308.139 203.222 307.784 203.192L304.279 202.895L304.195 203.891L297.186 203.298L297.27 202.301L290.261 201.708L290.177 202.704L283.168 202.11L283.252 201.114L276.243 200.52L276.159 201.517L269.15 200.923L269.234 199.927L262.225 199.333L262.141 200.329L255.132 199.736L255.216 198.739L248.207 198.146L248.123 199.142L241.114 198.548L241.198 197.552L234.189 196.958L234.105 197.955L227.096 197.361L227.18 196.365L220.171 195.771L220.087 196.767L213.078 196.174L213.162 195.177L206.154 194.583L206.069 195.58L199.06 194.986L199.145 193.99L192.136 193.396L192.051 194.393L185.042 193.799L185.127 192.802L181.622 192.506C181.265 192.475 180.92 192.638 180.716 192.933C180.512 193.227 180.481 193.608 180.634 193.931L182.144 197.108L183.048 196.679L186.067 203.032L185.164 203.462L188.184 209.815L189.087 209.386L192.107 215.74L191.204 216.169L194.223 222.522L195.126 222.093L198.146 228.447L197.243 228.876L200.263 235.23L201.166 234.8L204.186 241.154L203.282 241.583L206.302 247.937L207.205 247.508L210.225 253.861L209.322 254.29L212.342 260.644L213.245 260.215L216.264 266.568L215.361 266.998L218.381 273.351L219.284 272.922L222.304 279.276L221.401 279.705L224.42 286.058L225.324 285.629L228.343 291.983L227.44 292.412L230.46 298.766L231.363 298.336L234.383 304.69L233.48 305.119L234.99 308.296Z" fill="#F7F6F3" stroke="#BBBBBB" stroke-width="2" stroke-linejoin="round" stroke-dasharray="7 7"/>
<path d="M355 209V485H79V209H355ZM140.406 270.34V423.659H293.659V270.34H140.406Z" fill="#FFD501"/>
<path fill-rule="evenodd" clip-rule="evenodd" d="M222.163 278.979L160.471 278.023L226.895 417.746L407.384 157.145L343.963 151.777L256 279H255.886L235.893 307.867L222.163 278.979Z" fill="#00D478"/>
</svg>
