<svg width="345" height="375" viewBox="0 0 345 375" fill="none" xmlns="http://www.w3.org/2000/svg">
<mask id="mask0" mask-type="alpha" maskUnits="userSpaceOnUse" x="0" y="0" width="345" height="375">
<rect width="345" height="375" fill="#C4C4C4"/>
</mask>
<g mask="url(#mask0)">
<mask id="path-2-inside-1" fill="white">
<path d="M341.384 37.1452L160.895 297.746L24.2447 10.3001L341.384 37.1452ZM169.893 187.867L241.699 84.1882L115.538 73.502L169.893 187.867Z"/>
</mask>
<path d="M341.384 37.1452L160.895 297.746L24.2447 10.3001L341.384 37.1452ZM169.893 187.867L241.699 84.1882L115.538 73.502L169.893 187.867Z" fill="#F7F6F3" stroke="#BBBBBB" stroke-width="4" stroke-linejoin="round" stroke-dasharray="7 7" mask="url(#path-2-inside-1)"/>
<path d="M289 88.9998V365H13V88.9998H289ZM74.4065 150.34V303.659H227.659V150.34H74.4065Z" fill="#FFD501"/>
<path fill-rule="evenodd" clip-rule="evenodd" d="M156.163 158.979L94.4714 158.023L160.895 297.746L341.384 37.1451L277.963 31.7767L190 159H189.885L169.893 187.866L156.163 158.979Z" fill="#00D478"/>
</g>
</svg>
